<?xml version="1.0" encoding="utf-8"?>
<!-- Generator: Adobe Illustrator 16.0.0, SVG Export Plug-In . SVG Version: 6.00 Build 0)  -->
<!DOCTYPE svg PUBLIC "-//W3C//DTD SVG 1.1//EN" "http://www.w3.org/Graphics/SVG/1.1/DTD/svg11.dtd">
<svg version="1.1" id="Calque_1" xmlns="http://www.w3.org/2000/svg" xmlns:xlink="http://www.w3.org/1999/xlink" x="0px" y="0px"
	 width="425.197px" height="313.962px" viewBox="0 0 425.197 313.962" enable-background="new 0 0 425.197 313.962"
	 xml:space="preserve">
<g>
	<linearGradient id="SVGID_1_" gradientUnits="userSpaceOnUse" x1="197.1992" y1="88.6685" x2="267.0485" y2="88.6685">
		<stop  offset="0" style="stop-color:#26ADE4"/>
		<stop  offset="0.4644" style="stop-color:#869FAD"/>
		<stop  offset="1" style="stop-color:#878787"/>
	</linearGradient>
	<path fill="url(#SVGID_1_)" d="M108.186,124.478h-11.19c0-7.23,1.812-14.379,5.239-20.695l0.236-0.396
		c23.726-36.23,46.897-32.11,102.864-22.159l4.568,0.81l19.509,3.052c55.069,9.788,71.771,12.756,91.389-17.077
		c2.472-4.625,3.778-9.857,3.778-15.154h11.193c0,7.238-1.812,14.394-5.249,20.695l-0.235,0.394
		c-23.715,36.225-46.889,32.103-102.837,22.16l-4.587-0.812l-19.492-3.049c-55.089-9.798-71.788-12.765-91.413,17.071
		C109.492,113.949,108.186,119.185,108.186,124.478z"/>
	<linearGradient id="SVGID_2_" gradientUnits="userSpaceOnUse" x1="218.2441" y1="32.335" x2="335.7725" y2="32.335">
		<stop  offset="0" style="stop-color:#B2B2B2"/>
		<stop  offset="1" style="stop-color:#878787"/>
	</linearGradient>
	<path fill="url(#SVGID_2_)" d="M229.445,64.67h-11.201c0-35.659,29.022-64.67,64.679-64.67c29.142,0,52.85,23.713,52.85,52.859
		h-11.193c0-22.973-18.688-41.667-41.656-41.667C253.431,11.192,229.445,35.179,229.445,64.67z"/>
	<linearGradient id="SVGID_3_" gradientUnits="userSpaceOnUse" x1="170.5166" y1="129.3906" x2="191.6488" y2="117.6509">
		<stop  offset="0" style="stop-color:#26ADE4"/>
		<stop  offset="1" style="stop-color:#186B8C"/>
	</linearGradient>
	<path fill="url(#SVGID_3_)" d="M149.851,177.334c-29.147,0-52.856-23.711-52.856-52.857h11.19
		c0,22.973,18.688,41.665,41.666,41.665c29.483,0,53.479-23.992,53.479-53.481h11.19
		C214.521,148.32,185.507,177.334,149.851,177.334z"/>
	<linearGradient id="SVGID_4_" gradientUnits="userSpaceOnUse" x1="112.8516" y1="85.7847" x2="123.5921" y2="108.1653">
		<stop  offset="0" style="stop-color:#26ADE4"/>
		<stop  offset="1" style="stop-color:#186B8C"/>
	</linearGradient>
	<path fill="url(#SVGID_4_)" d="M37.17,131.122h9.113h2.086c0-47.811,38.893-86.71,86.71-86.71c37.636,0,68.251,30.616,68.251,68.25
		h11.19c0-43.804-35.636-79.44-79.441-79.44c-52.519,0-95.496,41.572-97.792,93.534L37.17,131.122z"/>
	<linearGradient id="SVGID_5_" gradientUnits="userSpaceOnUse" x1="276.0771" y1="74.7651" x2="369.239" y2="104.2609">
		<stop  offset="0" style="stop-color:#B2B2B2"/>
		<stop  offset="1" style="stop-color:#575756"/>
	</linearGradient>
	<path fill="url(#SVGID_5_)" d="M395.589,46.252c0-0.016,0-0.032,0-0.046h-11.193c0,47.813-38.891,86.707-86.702,86.707
		c-37.633,0-68.248-30.61-68.248-68.243h-11.201c0,43.802,35.647,79.441,79.449,79.441c52.464,0,95.412-41.492,97.786-93.383
		L395.589,46.252z"/>
</g>
<g>
	<path fill="#26ADE4" d="M29.17,225.331h7.386l28.141,66.192h-9.162l-6.731-16.268H15.706l-6.824,16.268H0L29.17,225.331z
		 M32.721,235.427h-0.187l-13.742,32.537h27.019L32.721,235.427z"/>
	<path fill="#26ADE4" d="M76.569,220.844h7.292v70.679h-7.292V220.844z"/>
	<path fill="#26ADE4" d="M126.121,253.939h-12.903v21.878c0,1.434,0.032,2.756,0.094,3.973c0.062,1.215,0.312,2.274,0.749,3.179
		c0.434,0.904,1.088,1.621,1.963,2.15c0.871,0.53,2.118,0.796,3.738,0.796c1.06,0,2.151-0.125,3.273-0.375
		c1.122-0.249,2.182-0.623,3.18-1.122l0.28,6.638c-1.249,0.562-2.634,0.967-4.162,1.216c-1.527,0.247-2.977,0.374-4.346,0.374
		c-2.618,0-4.707-0.343-6.266-1.028s-2.774-1.65-3.645-2.898c-0.875-1.246-1.449-2.789-1.729-4.628
		c-0.281-1.839-0.421-3.881-0.421-6.125v-24.026H96.39v-6.17h9.536v-12.436h7.292v12.436h12.903V253.939z"/>
	<path fill="#26ADE4" d="M177.912,283.577c-2.619,3.364-5.486,5.718-8.601,7.058c-3.117,1.341-6.731,2.011-10.845,2.011
		c-3.429,0-6.513-0.608-9.256-1.823c-2.743-1.216-5.066-2.853-6.965-4.907c-1.901-2.058-3.367-4.489-4.395-7.295
		c-1.029-2.803-1.541-5.796-1.541-8.975c0-3.364,0.559-6.464,1.681-9.302c1.122-2.836,2.681-5.267,4.676-7.293
		c1.993-2.024,4.362-3.598,7.105-4.72s5.733-1.684,8.975-1.684c3.053,0,5.858,0.514,8.414,1.543
		c2.557,1.029,4.752,2.522,6.591,4.486c1.839,1.964,3.258,4.364,4.255,7.198c0.995,2.839,1.496,6.062,1.496,9.677v2.338h-35.34
		c0.123,1.871,0.574,3.663,1.356,5.377c0.777,1.715,1.79,3.211,3.037,4.486c1.247,1.278,2.712,2.292,4.395,3.04
		c1.683,0.747,3.52,1.122,5.516,1.122c3.179,0,5.858-0.561,8.04-1.685c2.182-1.122,4.146-2.771,5.891-4.956L177.912,283.577z
		 M171.649,265.72c-0.127-3.741-1.343-6.732-3.647-8.977c-2.307-2.244-5.486-3.366-9.536-3.366c-4.053,0-7.326,1.122-9.817,3.366
		c-2.494,2.244-3.99,5.235-4.487,8.977H171.649z"/>
	<path fill="#26ADE4" d="M194.553,258.147c0-1.995-0.062-3.865-0.187-5.61c-0.125-1.744-0.187-3.334-0.187-4.768h6.92
		c0,1.185,0.029,2.368,0.093,3.551c0.06,1.186,0.093,2.4,0.093,3.647h0.188c0.497-1.06,1.198-2.089,2.102-3.086
		c0.904-0.995,1.979-1.884,3.227-2.662c1.247-0.779,2.647-1.404,4.206-1.871c1.559-0.468,3.242-0.701,5.05-0.701
		c0.499,0,0.995,0.031,1.496,0.094c0.496,0.062,0.995,0.187,1.496,0.373l-0.468,7.386c-1.249-0.373-2.558-0.561-3.927-0.561
		c-4.486,0-7.747,1.449-9.771,4.348c-2.026,2.897-3.039,6.872-3.039,11.92v21.316h-7.292V258.147z"/>
	<path fill="#575756" d="M262.243,225.331h41.604v7.291h-33.752v20.756h31.508v7.292h-31.508v23.561h35.434v7.293h-43.286V225.331z"
		/>
	<path fill="#575756" d="M363.774,289.559c0,7.978-2.043,14.039-6.124,18.185c-4.084,4.146-9.988,6.219-17.717,6.219
		c-4.3,0-8.181-0.626-11.64-1.871c-3.459-1.249-6.747-3.397-9.865-6.452l5.238-5.982c2.304,2.491,4.751,4.377,7.338,5.657
		c2.586,1.276,5.562,1.914,8.929,1.914c3.239,0,5.936-0.482,8.087-1.448c2.15-0.967,3.847-2.276,5.097-3.926
		c1.244-1.651,2.116-3.538,2.615-5.658c0.499-2.117,0.749-4.33,0.749-6.637v-5.609h-0.188c-1.745,2.807-4.019,4.861-6.824,6.171
		c-2.806,1.309-5.673,1.964-8.601,1.964c-3.43,0-6.577-0.562-9.444-1.684s-5.327-2.679-7.385-4.674
		c-2.058-1.994-3.646-4.362-4.77-7.107c-1.122-2.741-1.68-5.733-1.68-8.975c0-3.552,0.558-6.763,1.68-9.63
		c1.123-2.865,2.697-5.282,4.723-7.245c2.024-1.964,4.472-3.474,7.339-4.534c2.865-1.059,6.046-1.589,9.537-1.589
		c1.496,0,2.991,0.172,4.488,0.514c1.494,0.343,2.943,0.873,4.346,1.591c1.403,0.716,2.665,1.621,3.787,2.709
		c1.122,1.091,2.057,2.354,2.804,3.788h0.188v-7.479h7.293V289.559z M325.443,269.645c0,2.244,0.402,4.317,1.215,6.219
		c0.809,1.901,1.916,3.551,3.318,4.954s3.039,2.509,4.909,3.319c1.868,0.811,3.863,1.217,5.983,1.217c2.49,0,4.705-0.438,6.637-1.31
		c1.934-0.873,3.567-2.042,4.91-3.507c1.337-1.464,2.351-3.146,3.036-5.049c0.687-1.901,1.029-3.911,1.029-6.031
		c0-2.366-0.374-4.533-1.122-6.497c-0.747-1.964-1.809-3.659-3.177-5.095c-1.373-1.434-3.024-2.539-4.958-3.318
		c-1.932-0.78-4.052-1.17-6.355-1.17c-2.308,0-4.411,0.421-6.311,1.263c-1.904,0.842-3.522,1.995-4.862,3.46
		c-1.341,1.465-2.385,3.178-3.131,5.141C325.816,265.205,325.443,267.34,325.443,269.645z"/>
	<path fill="#575756" d="M378.452,269.645c0-3.428,0.59-6.544,1.775-9.35c1.185-2.803,2.806-5.219,4.862-7.245
		c2.058-2.024,4.519-3.598,7.386-4.72c2.865-1.122,5.982-1.684,9.35-1.684c3.366,0,6.481,0.562,9.349,1.684
		c2.866,1.122,5.329,2.695,7.386,4.72c2.057,2.026,3.678,4.442,4.863,7.245c1.182,2.806,1.774,5.922,1.774,9.35
		c0,3.429-0.593,6.546-1.774,9.349c-1.186,2.807-2.807,5.222-4.863,7.248s-4.52,3.599-7.386,4.721
		c-2.867,1.122-5.982,1.683-9.349,1.683c-3.367,0-6.484-0.561-9.35-1.683c-2.867-1.122-5.328-2.694-7.386-4.721
		c-2.057-2.026-3.678-4.441-4.862-7.248C379.042,276.191,378.452,273.074,378.452,269.645z M386.306,269.645
		c0,2.307,0.356,4.441,1.075,6.405c0.715,1.962,1.76,3.679,3.131,5.142c1.372,1.465,3.006,2.618,4.909,3.46
		c1.899,0.842,4.035,1.263,6.404,1.263c2.368,0,4.501-0.421,6.403-1.263c1.901-0.842,3.538-1.995,4.91-3.46
		c1.368-1.463,2.413-3.18,3.13-5.142c0.717-1.964,1.075-4.099,1.075-6.405c0-2.305-0.358-4.44-1.075-6.404
		c-0.717-1.963-1.762-3.676-3.13-5.141c-1.372-1.465-3.009-2.618-4.91-3.46c-1.902-0.842-4.035-1.263-6.403-1.263
		c-2.369,0-4.505,0.421-6.404,1.263c-1.903,0.842-3.537,1.995-4.909,3.46c-1.371,1.465-2.416,3.178-3.131,5.141
		C386.662,265.205,386.306,267.34,386.306,269.645z"/>
</g>
</svg>
